<?xml version="1.0" encoding="UTF-8"?>
<svg id="Layer_1" xmlns="http://www.w3.org/2000/svg" version="1.1" viewBox="0 0 35 35">
  <!-- Generator: Adobe Illustrator 29.7.1, SVG Export Plug-In . SVG Version: 2.1.1 Build 8)  -->
  <defs>
    <style>
      .st0 {
        fill: #fff;
      }
    </style>
  </defs>
  <path class="st0" d="M32.73,7.38l-.1-.03-5.46,3.18h-1.04v-2.51c0-.3-.51-.67-.75-.67h-15.86v-1.11c0-.12.15-.37.43-.61.31-.27.59-.37.75-.34h7.62c0,.53.21.86.62.98h.03s6.59,0,6.59,0c.31-.06.51-.28.56-.63.06-.44.04-1.74,0-2.15-.05-.44-.3-.73-.76-.8h-6.32c-.64.09-.73.67-.73,1.08l-8.13.03c-.94.21-2.04,1.13-2.2,2.25-.04.27-.02.56,0,.85,0,.16.02.32.02.46-.18,0-.43,0-.69-.01-1.29-.04-2.09-.04-2.32.32l-.12.77c-.34.04-.76.01-1.16-.01-.48-.03-.98-.06-1.41.02-.2.05-.36.17-.46.36-.23.39-.2,2.19-.14,2.52.07.37.38.65.67.91.17.16.33.3.39.39.03.1.02.43,0,.7-.03.81-.03,1.4.25,1.68.1.1.22.15.35.15h1.47l.03.08v4.5c0,.08,0,.2.12.33.12.14.39.3.56.3h7.09v.5c-.32,0-.73,0-.98.46l-2.65,7.92v2.69s0,.08,0,.08c.12.34.56.31.93.29.09,0,.22-.01.26,0l.3.06v-2.16h4.24v2.14l.28-.04c.1-.01.2,0,.31,0,.27.02.59.04.84-.19l.08-.07v-1.84h4.16v1.84l.08.07c.25.24.58.21.85.19.11,0,.22-.01.31,0l.28.04v-3.12l-.02-.1c-.5-1.15-.88-2.46-1.24-3.73-.38-1.31-.76-2.67-1.29-3.84-.26-.59-.54-.7-1.02-.71v-.5h7.09c.23,0,.67-.45.67-.67v-2.43h1.19l4.98,3.02c.32.17.69.08.96-.23l.06-.07.04-11.8c-.04-.45-.14-.63-.63-.77ZM31.83,9.5v8.67l-3.63-2.14.02-4.41,3.61-2.12ZM26.62,12.03v3.62h-.51v-3.62h.51ZM3.27,10.94v-1.01h1.6v3.69c-.11.04-.27.03-.44.01-.05,0-.1,0-.15,0v-1.6l-1.01-1.09ZM17.95,22.37l2.12,6.33h-3.83v-6.33h1.71ZM16.76,20.34v.51h-2.6v-.51h2.6ZM6.38,16.74v-7.81h18.23v9.92H6.38v-.59h11.42v-1.51H6.38ZM14.74,22.36v6.34h-3.92l2.09-6.34h1.82ZM19.9,4.78v-.59h4.7c.04.11.03.27.02.44,0,.05,0,.1,0,.15h-4.7Z"/>
  <path class="st0" d="M22.83,15.6c.26-.33.25-1.08,0-1.4l-.08-.09h-1.85v-.51h2.1v-1.51h-2.1v-.59h2.1v-1.82s-.36.32-.36.32h-3.26v5.71h3.37l.08-.1Z"/>
  <polygon class="st0" points="17.19 9.98 16.5 13.23 15.81 9.98 14.21 9.98 15.45 15.6 16.5 15.63 16.5 15.63 16.5 15.63 17.51 15.65 18.79 9.98 17.19 9.98"/>
  <path class="st0" d="M11.34,14.1h-1.85v-4.12h-1.51v5.71h3.37l.08-.1c.26-.33.26-1.08,0-1.4l-.07-.09Z"/>
  <path class="st0" d="M12.1,15.43l.08.07c.25.24.58.21.85.19.11,0,.22-.02.31,0l.28.04v-5.74h-1.51v5.44Z"/>
  <rect class="st0" x="18.31" y="16.74" width="1.59" height="1.51"/>
  <rect class="st0" x="20.41" y="16.74" width="1.51" height="1.51"/>
  <rect class="st0" x="22.5" y="16.74" width="1.51" height="1.51"/>
</svg>