<?xml version="1.0" encoding="UTF-8"?>
<svg id="Layer_1" data-name="Layer 1" xmlns="http://www.w3.org/2000/svg" viewBox="0 0 150 150">
  <defs>
    <style>
      .cls-1 {
        fill: #fff;
      }
    </style>
  </defs>
  <path class="cls-1" d="M62.7,60.08c.25-12.43-2.01-27.54,8.93-36.23,9.48-7.52,21.45-5.32,32.7-4.93l.3,18.25c-.91,1.27-5.98-.08-7.52-.06-1.82.02-6.84.46-8.45.95-.83.25-2.47,1.14-3.02,1.79-.63.74-1.86,4.21-1.86,5.03v15.21h20.12l-2.34,20.59h-17.78v50.31c0,.14.59.36.47.7h-21.53v-50.78c-.41-.67-.93-.65-1.61-.73-4.88-.57-10.65,1.08-15.7.49v-20.59h17.32Z"/>
</svg>