<?xml version="1.0" encoding="UTF-8"?>
<svg id="Layer_1" xmlns="http://www.w3.org/2000/svg" version="1.1" viewBox="0 0 35 35">
  <!-- Generator: Adobe Illustrator 29.7.1, SVG Export Plug-In . SVG Version: 2.1.1 Build 8)  -->
  <defs>
    <style>
      .st0 {
        fill: #fff;
      }
    </style>
  </defs>
  <path class="st0" d="M34.41,17.64c-.04-.46-.32-.81-.75-1,.19-.08.33-.24.45-.37.06-.07.11-.13.17-.18l.07-.06v-.09s.05-7.08.05-7.08c-.08-.69-.58-1.03-1.48-1.03-.44,0-.91.08-1.32.14-.24.04-.45.07-.61.09-1.07.08-2.12.18-3.18.28-.64.06-1.27.12-1.91.18-.09,0-.19.01-.29.01s-.2,0-.31,0c-.11,0-.22,0-.34,0-.48,0-1.03.05-1.43.46-.22.22-.33.6-.37.87,0,.08-.02.18-.02.28,0-.12-.02-.25-.03-.35-.08-.6-.59-1.24-1.23-1.24h-.04s-8.96.02-8.96.02h-.04s-.03.01-.03.01c-.49.19-.87.68-.93,1.21-.04.36-.07.91-.09,1.53-.01-.52-.01-1.02.03-1.5v-.03s0-.03,0-.03c-.23-1.16-.96-1.18-1.66-1.2-.16,0-.33,0-.51-.03-.69-.07-1.4-.16-2.12-.25-1.81-.22-3.67-.45-5.39-.5h-.1c-.9,0-1.38.39-1.45,1.15-.1,1.11-.06,2.32-.01,3.48.04,1.07.08,2.17.01,3.19-.02.35.15.49.29.61.03.03.07.06.1.09l.07.07c.17.16.26.23.43.27-.53.16-.87.51-.9.98.09,1.03.04,2.14-.01,3.22-.05,1.18-.11,2.41.01,3.49.07.6.7,1.03,1.26,1.04h.1c.41,0,.9-.07,1.38-.14.38-.05.73-.1,1.04-.12.53-.03,1.06-.06,1.59-.08,1.64-.08,3.33-.17,4.99-.39.51-.16.82-.7.87-1.13l.02-.22h-.01s0-.06,0-.09c0,.11.02.22.02.31.09.71.44,1.1,1.05,1.16.62.06,1.29.08,2.06.08.88,0,1.79-.04,2.67-.07.88-.03,1.79-.07,2.66-.07.63,0,1.19.02,1.7.06h0c.27,0,.54-.11.71-.28.21-.21.33-.6.37-.87.02-.17.03-.35.04-.52.01.16.02.31.04.43.13,1.15.81,1.18,1.46,1.21.14,0,.28.01.43.03,2.37.26,4.66.39,6.4.46.19,0,.4.04.62.07.31.04.62.09.93.09.79,0,1.25-.33,1.39-1.01v-.03s0-.03,0-.03c-.07-1.01-.03-2.09.01-3.14.04-1.15.09-2.34-.01-3.44ZM32.93,8.03c.08,0,.15.01.23.02-.08,0-.17-.02-.26-.02,0,0,.02,0,.03,0ZM24.97,8.72s.03,0,.05,0c-.04,0-.08,0-.12,0,.02,0,.04,0,.07,0ZM21.88,8.73c.08,0,.14.03.21.05-.08-.02-.16-.06-.24-.05,0,0,.02,0,.03,0ZM12.85,9.98l.02-.22h0c.03-.18.08-.2.2-.2l9.03.05c.05.08.07.18.08.33.12,1.31.12,3.86,0,5.28h0s0,.05,0,.05c0,.09-.01.18-.03.25l-9.24.03c-.02-.06-.03-.19-.04-.25v-.1c-.12-1.4-.12-3.96,0-5.24ZM20.46,16.69c-.22,0-.44-.01-.66,0,.03,0,.07,0,.1,0,.19,0,.37,0,.56.01ZM15.19,16.58s-.05,0-.07,0c-.2,0-.39,0-.58-.01.22,0,.43,0,.65,0ZM10.93,9.55l.05,5.89-.05-5.89-.28-.18.28.18ZM5.76,8.9c-.14,0-.28.01-.42.01-.08,0-.16,0-.24,0,.21.02.44,0,.66,0ZM2.05,7.97s.07,0,.1,0c-.11,0-.21.01-.32.02.07,0,.14-.02.22-.02ZM1.55,9.24c.02-.26.05-.39.19-.5,0,0,0,0,0,0,.02,0,.08,0,.19,0,.51,0,1.54.14,2.3.25.37.05.69.1.86.11.09,0,.17,0,.26,0,.13,0,.26,0,.39-.01.12,0,.25-.01.37-.01.09,0,.19,0,.28.01.6.05,1.2.13,1.8.21.79.1,1.6.2,2.41.25l.15.1.05,5.73-.08.16H1.59c-.03-.08-.03-.16-.04-.26h0s0-.05,0-.05c-.13-1.61-.13-4.52,0-5.99ZM10.74,16.45c-.08.02-.15.05-.23.05-.01,0-.02,0-.04,0,.09,0,.18-.03.26-.05ZM8.41,16.68s.03,0,.05,0c.2,0,.4,0,.6.01-.22,0-.43-.01-.65-.01ZM8.85,17.37s-.1,0-.14,0-.1,0-.15,0c.1,0,.2,0,.3,0ZM3.89,16.57s-.04,0-.06,0c-.03,0-.06,0-.09,0,.05,0,.1,0,.16,0ZM1.96,25.17s-.06,0-.1,0c.12,0,.27,0,.41-.02-.1,0-.21.02-.31.02ZM10.71,23.63l-9.05.69c-.06-.1-.1-.19-.11-.3-.16-1.28-.12-4.67,0-5.99.04-.43.08-.47.51-.51.54-.05,1.13-.07,1.82-.07.79,0,1.61.03,2.4.06.8.03,1.63.06,2.43.06.57,0,1.08-.02,1.54-.05l.48.21.05,5.71-.07.18ZM11.88,17.81c-.01.11-.02.26-.03.4,0-.11-.01-.22-.02-.31-.06-.66-.44-1.1-1.03-1.26.53-.13.97-.59,1.03-1.19.01-.11.02-.23.03-.34,0,.12.02.25.03.35.07.59.44,1.02.96,1.17-.52.19-.91.64-.96,1.18ZM14.99,24.55c-.2,0-.39,0-.59-.01.22,0,.44,0,.67,0-.02,0-.05,0-.08,0ZM22,23.66h-8.99l-.12-.12c0-.7-.02-1.45-.05-2.18-.05-1.12-.1-2.29,0-3.32.03-.34.07-.44.27-.5l8.56-.02c.15,0,.34.03.42.15l.02,5.86-.11.12ZM23.19,17.82c-.05.4-.08,1.04-.09,1.74-.02-.62-.03-1.23.02-1.81v-.03s0-.03,0-.03c-.12-.51-.51-.91-.99-1.05.58-.17.94-.61,1-1.27,0-.09.02-.21.02-.31,0,.14.02.28.03.39.05.53.27.9.67,1.12l.04.04h.09s.13.01.13.01c-.55.24-.84.62-.9,1.21ZM24.72,23.9c-.09-.01-.18-.02-.26-.04.08.02.16.03.26.04.61.07,1.22.12,1.84.15-.62-.03-1.23-.07-1.84-.15ZM33.02,25.09s-.05,0-.07,0c.03,0,.07,0,.1,0-.01,0-.02,0-.03,0ZM33.41,24.22c-.06.06-.13.11-.2.13h-.07s-.14,0-.14,0c-.56,0-1.24-.1-1.9-.19-.52-.07-1.02-.14-1.46-.17-.61-.04-1.23-.06-1.85-.09-1-.04-2.04-.07-3.05-.19-.38-.05-.49-.09-.52-.33-.11-.86-.06-1.88,0-2.87.05-.94.1-1.91.01-2.78,0-.05,0-.13.2-.17l8.65-.02.06-.19s0,0,0,0v.19c.12,0,.21.05.29.15v6.53ZM26.12,15.89s.09,0,.14,0c.05,0,.11,0,.16,0-.1,0-.2,0-.31,0ZM33.47,12.39c-.04,1.02-.09,2.07,0,3.05-.01.15-.09.25-.52.29-.55.05-1.16.07-1.85.07-.79,0-1.61-.03-2.41-.06-.8-.03-1.63-.06-2.43-.06-.57,0-1.08.02-1.55.05-.18,0-.48-.08-.49-.31.07-.85.03-1.79,0-2.69-.04-.95-.08-1.94,0-2.84h0s0-.06,0-.06c0-.1.01-.15.03-.18l9.09-.79c.07.12.1.23.12.39.1.99.05,2.09,0,3.15Z"/>
  <path class="st0" d="M26.4,26.21h-.2s-10.71-.01-10.71-.01c.78-.01,1.56-.03,2.32-.05,1.32-.03,2.68-.07,4.01-.07.96,0,1.81.02,2.61.05h.03s.03,0,.03,0l.5-.11.16-.03v-.81h-15.26l-.03.17c-.03.22-.05.44.08.6.13.16.33.17.59.19h.11s0,0,0,0c.53.03,1.09.05,1.68.06h-3.57l-.05.04c-.15.11-.24.27-.23.44,0,.19.11.37.28.49l.05.03h.06s17.24.03,17.24.03h.03s.03,0,.03,0c.32-.1.42-.41.39-.65-.02-.12-.07-.22-.14-.28v-.08ZM13.79,26.02c-.31,0-.62,0-.93-.01.35,0,.69,0,1.04,0-.04,0-.07,0-.11,0ZM26.09,27.03h0c.09-.03.15-.08.19-.14-.04.06-.1.12-.19.14Z"/>
  <polygon class="st0" points="7.22 14.41 7.42 14.41 7.42 14.21 7.42 13.46 7.42 13.26 7.22 13.26 6.35 13.26 6.35 10.72 6.35 10.52 6.15 10.52 5.18 10.52 4.98 10.52 4.98 10.72 4.98 14.21 4.98 14.41 5.18 14.41 7.22 14.41"/>
  <path class="st0" d="M7.47,18.97h-.17l-.03.17-.24,1.37-.31-1.38-.03-.16h-1.38l-.04.16-.33,1.41-.24-1.4-.03-.17h-1.47l.06.25.85,3.49.04.15h1.5l.04-.15.3-1.28.28,1.28.03.16h1.51l.04-.15.85-3.49.06-.25h-1.3ZM4.92,21.55h0s.55-2.38.55-2.38l-.55,2.38Z"/>
  <path class="st0" d="M18.18,18.78l-.05-.13h-1.4l-.05.13-1.27,3.49-.1.27h1.45l.04-.14.14-.43h.96l.14.43.04.14h1.45l-.1-.27-1.27-3.49ZM17.36,20.83l.09-.29.1.29h-.19Z"/>
  <polygon class="st0" points="30.22 21.55 30.22 19.01 30.22 18.81 30.02 18.81 29.05 18.81 28.85 18.81 28.85 19.01 28.85 21.55 28.67 21.55 27.78 21.55 27.78 19.01 27.78 18.81 27.58 18.81 26.62 18.81 26.42 18.81 26.42 19.01 26.42 22.49 26.42 22.69 26.62 22.69 28.67 22.69 28.85 22.69 28.87 22.69 29.05 22.69 31.09 22.69 31.29 22.69 31.29 22.49 31.29 21.75 31.29 21.55 31.09 21.55 30.22 21.55"/>
  <polygon class="st0" points="18.45 14.41 18.65 14.41 18.65 14.21 18.65 13.42 18.65 13.22 18.45 13.22 17.39 13.22 17.39 13 18.3 13 18.5 13 18.5 12.8 18.5 12.07 18.5 11.87 18.3 11.87 17.39 11.87 17.39 11.69 18.45 11.69 18.65 11.69 18.65 11.49 18.65 10.72 18.65 10.52 18.45 10.52 16.22 10.52 16.02 10.52 16.02 10.72 16.02 14.21 16.02 14.41 16.22 14.41 18.45 14.41"/>
  <path class="st0" d="M29.68,10.76c-.32-.16-.66-.24-1.05-.24h-1.58v3.89h1.58c.4,0,.74-.08,1.05-.25.31-.17.54-.4.71-.7.17-.3.25-.63.25-1s-.09-.72-.25-1c-.17-.31-.41-.54-.72-.69ZM29.09,12.98c-.12.11-.31.18-.53.18h-.13v-1.4h.13c.23,0,.41.06.53.18s.18.29.18.53-.06.4-.18.52Z"/>
</svg>