<?xml version="1.0" encoding="UTF-8"?>
<svg id="Layer_1" data-name="Layer 1" xmlns="http://www.w3.org/2000/svg" viewBox="0 0 150 150">
  <defs>
    <style>
      .cls-1 {
        fill: #fff;
      }
    </style>
  </defs>
  <path class="cls-1" d="M104.33,124.6v-35.98c0-.15-.44-.82-.5-1.43-.31-3.08.1-4.63-1.52-7.66-3.86-7.23-16.42-6.21-19.66,1.42-.34.81-1.5,4.65-1.5,5.26v38.15c-.42.69-.96.67-1.67.75-6.34.74-12.88-1.44-19.1-.02V57.95l19.8.48v7.24c.86.13,1.06.03,1.67-.5,3.46-3,4.85-5.72,9.92-7.46,14.64-5.04,29.37,1.85,32.23,17.51,2.82,15.45.19,33.31,1.02,49.07l-.38.58-20.32-.27Z"/>
  <polygon class="cls-1" points="47.34 124.6 26.57 124.6 26.57 57.95 46.55 57.99 47.34 58.68 47.34 124.6"/>
  <path class="cls-1" d="M45.71,28.66c9.72,10.02-3.51,26.45-15.64,18.3-14.5-9.74,3.33-31,15.64-18.3Z"/>
</svg>