<?xml version="1.0" encoding="UTF-8"?>
<svg id="Layer_1" data-name="Layer 1" xmlns="http://www.w3.org/2000/svg" viewBox="0 0 150 150">
  <defs>
    <style>
      .cls-1 {
        fill: #fff;
      }
    </style>
  </defs>
  <path class="cls-1" d="M57.23,40.05c2.11,3.35,13.37-3.01,17.85-3.01,5.62,0,13.62,6,17.39,3.27s-6.62-11.75-.47-18.14c4.94-5.13,8.47,5.63,9.22,9.38.73,3.67-1.79,6.58,3.16,7.63.95-6.56-4.59-24.35,6.7-23.76,9.67.5.29,23.72,7.7,27.38,8.85,4.37,3.8-14.97,4.23-19.43.86-8.92,7.96-15.57,14.75-6.75,7.89,10.25,3.83,31.09-6.29,38.84-11.83,9.06-21.07-2.9-33.24-2.9l4.14,14.37c17.39.29,17.03,14.35.08,15.55-.28,5.8,1.31,10.95.95,16.91-.51,8.46-11.5,30-18.61,34.86-10.18,6.96-20.35,2.19-26.49-7.32-3.84-5.95-11.09-20.83-11.53-27.54-.39-5.92.93-11.16.97-16.92-17.51-1.4-17.24-15.08.07-15.54l4.14-14.36c-12.65.38-21.79,12.1-33.85,2.47-8.57-6.85-12.45-23.86-8.36-33.88,4.75-11.62,15.02-11.9,17.07,1.53.73,4.78-4.15,24.57,4.59,20.13,7.4-3.76-3.15-33.16,11.27-26.74,5.81,2.59,2.61,14.07,2.35,18.79-.31,5.83,2.72,4.91,3.78.67.71-2.84,2.65-20.33,9.35-13.35,5.93,6.17-3.6,13.63-.92,17.89ZM58.9,60.96c-18.76,2.12-11.96,33.57,7.33,24.89,13.25-5.96,7.5-26.57-7.33-24.89ZM87.69,60.96c-15.66,1.77-14.48,27.22,2.55,26.3,17.69-.96,15.4-28.32-2.55-26.3ZM93.07,119.39c-10.92,8.4-24.76,9.59-35.48,0-.75,2.94,6.5,8.8,9.53,10.01,9.12,3.63,17.76.92,23.9-6.41.97-1.16,2.5-1.66,2.05-3.6Z"/>
  <path class="cls-1" d="M89.73,74.41c3.79,4.36-4.11,8.23-6.5,4.94-2.68-3.7,3.34-8.58,6.5-4.94Z"/>
  <path class="cls-1" d="M60.39,80.08c-2.53-2.53.67-9.92,5.52-6.04s-2.42,9.14-5.52,6.04Z"/>
</svg>