<?xml version="1.0" encoding="UTF-8"?>
<svg id="Layer_1" xmlns="http://www.w3.org/2000/svg" version="1.1" viewBox="0 0 35 35">
  <!-- Generator: Adobe Illustrator 29.7.1, SVG Export Plug-In . SVG Version: 2.1.1 Build 8)  -->
  <defs>
    <style>
      .st0 {
        fill: #fff;
      }
    </style>
  </defs>
  <path class="st0" d="M29,11.79h-3.45v4.99s-.43.46-.49.49c-.48.22-1.48-.11-1.48-.61V6.12h-15.03v20.57h7.82c.1,0,.47.32.54.44.48.83-.2,1.46-1.03,1.53-3.28.3-7.01-.22-10.34-.02-2.33-.33-4.04-2.03-4.38-4.36.27-5.06-.37-10.51,0-15.52.18-2.47,2.09-4.31,4.5-4.61,6.67.35,13.83-.47,20.45,0,2.58.18,4.66,1.99,4.86,4.62.06.75.11,3.94-.06,4.51-.27.89-1.68.84-1.89-.09-.1-.43.01-.95-.03-1.39ZM3.14,9.81h3.26l.18-.18v-3.33c0-.36-1.25-.07-1.48,0-1.43.47-2.18,2.06-1.97,3.51ZM29,9.81c.16-1.5-.51-2.97-2-3.48-.22-.07-1.45-.42-1.45-.03v3.51h3.45ZM6.59,15.36v-3.39l-.18-.18h-3.26v3.57h3.45ZM6.59,17.45h-3.45v3.57h3.26l.18-.18v-3.39ZM3.14,22.99c-.21,1.44.54,3.04,1.97,3.51.23.07,1.48.36,1.48,0v-3.33l-.18-.18h-3.26Z"/>
  <path class="st0" d="M30.33,15.76c2.52-.23,4.3,2.28,3.38,4.61-2.82,3.54-6.38,6.53-9.52,9.82-.53.36-2.83.79-3.51.81-2.84.08-1.81-3.79-1.22-5.42l9.05-9.06c.5-.44,1.16-.7,1.82-.77ZM30.57,17.73c-.67.04-1.33.83-1.69,1.37l1.78,1.8c.7-.77,1.66-1.19,1.18-2.41-.18-.46-.79-.79-1.27-.76ZM20.75,28.9l2.53-.49,5.97-6.1c-.5-.33-1.28-1.5-1.72-1.73-.09-.05-.15-.08-.24,0l-6.09,6.11-.44,2.21Z"/>
  <path class="st0" d="M15.18,12.3c.47-.05.93.1,1.34.32.62.32,3.01,2.06,3.31,2.61.54,1,.37,2.11-.44,2.9-.41.4-2.36,1.8-2.87,2.05-1.24.61-2.83.21-3.35-1.13-.3-.78-.3-4.51,0-5.29s1.19-1.37,2.01-1.45ZM15.1,18.42c.24.07.44-.03.65-.13.33-.16,1.84-1.21,2.11-1.46.65-.62.04-.79-.51-1.21-.38-.29-1.7-1.27-2.07-1.26-.2,0-.15.01-.22.16-.17.37-.14,3.77.05,3.9Z"/>
</svg>