<?xml version="1.0" encoding="UTF-8"?>
<svg id="Layer_1" xmlns="http://www.w3.org/2000/svg" version="1.1" viewBox="0 0 35 35">
  <!-- Generator: Adobe Illustrator 29.7.1, SVG Export Plug-In . SVG Version: 2.1.1 Build 8)  -->
  <defs>
    <style>
      .st0 {
        fill: #fff;
      }
    </style>
  </defs>
  <path class="st0" d="M28.47,23.88v-.08l-.17-.03c-.13-.02-.27-.01-.41,0-.09,0-.17,0-.25,0-.06,0-.12-.01-.18-.03-.14-.03-.32-.07-.54.03l-23.96-.02c-.06-.03-.17-.15-.19-.16v-1.42h21.29l-.3-.33c-.24-.27-.47-.56-.55-.9l-.04-.15H2.76v-11.41c.1-.09.2-.2.3-.32.1-.12.23-.26.3-.31h23.67c.05.03.18.17.2.18v2.86l1.39-.06v-2.87c0-.32-.17-.68-.48-.98-.34-.33-.76-.53-1.12-.52H2.87c-.77.11-1.36.69-1.5,1.5v14.7c-.01.36.18.77.5,1.11.31.32.67.5,1,.5h9.94v1.09h-1.38c-.17,0-.4.2-.46.27-.15.18-.19.41-.13.62.07.23.28.42.53.5h7.28s.04,0,.04,0c.27-.11.45-.35.48-.62.02-.25-.09-.48-.3-.63,0,0-.21-.12-.3-.12h-1.38v-1.09h9.94c.47,0,1.01-.45,1.24-.79.08-.12.2-.29.13-.45,0-.02-.02-.04-.03-.05ZM14.2,26.26v-1.09h1.59v1.09h-1.59Z"/>
  <path class="st0" d="M33.64,17.24l-.05-.18h-.02c-.09-.37-.35-.72-.71-.92-.08-.05-.15-.07-.22-.09q-.1-.03-.12-.15s.04-.13.06-.19c.04-.09.08-.2.09-.3.12-.82-.53-1.45-1.03-1.85-.31-.24-.67-.34-1.06-.31-.12.01-.27.07-.4.12-.05.02-.1.04-.14.05-.04-.01-.11-.04-.16-.06,0-.02-.01-.04-.02-.06-.02-.07-.04-.14-.07-.18-.45-.85-1.31-.86-2.06-.79-.55.04-.95.31-1.22.83-.04.07-.06.13-.07.19,0,.02-.01.04,0,.04,0,0-.02.02-.13.04-.03,0-.03,0-.08-.02-.04-.02-.09-.05-.16-.07-.55-.16-.99-.08-1.39.25-.41.34-1.26,1.04-.95,2.04.02.07.05.14.11.23,0,0,0,.01.01.02-.02.05-.05.11-.07.15-.02,0-.05.02-.08.03-.08.03-.16.05-.21.09-.9.5-.79,1.62-.74,2.1.04.45.33.87.74,1.11.08.05.15.07.22.09q.1.03.12.15s-.04.13-.06.19c-.04.09-.08.2-.09.3-.12.82.53,1.45,1.02,1.85.31.24.67.34,1.05.31.13-.01.24-.06.34-.09.2-.08.27-.09.34-.04,0,.01.02.05.02.07.02.06.04.12.07.17.38.69.97.85,1.57.85.19,0,.38-.02.57-.04.45-.04.87-.33,1.11-.74.05-.08.07-.15.09-.22q.03-.1.15-.12s.13.03.19.06c.09.04.2.08.3.09.81.11,1.45-.53,1.85-1.03.24-.31.34-.66.31-1.05-.01-.13-.06-.24-.09-.34-.08-.2-.09-.27-.04-.34.02-.01.11-.05.16-.07.08-.03.15-.06.19-.08.78-.44.8-1.35.72-2.1ZM31.07,20.09c.06.05.21.19.21.22-.05.11-.43.5-.52.54-.06.02-.15-.09-.22-.17-.07-.08-.14-.15-.23-.21l-.11-.07-.11.07c-.34.21-.8.47-1.33.54l-.09.04c-.12.09-.12.24-.12.41,0,.08,0,.28-.03.32-.09.01-.68,0-.74,0-.04-.04-.03-.23-.03-.32,0-.18,0-.33-.12-.42l-.08-.03c-.49-.09-.94-.28-1.3-.54l-.08-.04s-.03,0-.05,0c-.13,0-.23.11-.33.22-.05.06-.18.2-.2.21-.11-.05-.5-.43-.54-.52-.01-.05.09-.15.17-.22.08-.07.15-.14.21-.23l.07-.11-.07-.11c-.21-.34-.47-.8-.54-1.33l-.03-.08c-.09-.13-.26-.13-.42-.12-.25,0-.3-.01-.31-.06-.02-.13-.01-.63.01-.72.02-.04.23-.03.3-.03.16,0,.31.01.41-.11l.04-.09c.09-.49.27-.92.54-1.3l.04-.08c.03-.15-.09-.26-.21-.37-.06-.05-.2-.18-.21-.2.05-.11.43-.5.52-.55.04-.01.12.06.21.16.08.09.17.19.28.24l.11.05.1-.07c.35-.27.8-.45,1.29-.54l.08-.03c.13-.09.12-.25.12-.41,0-.15,0-.3.05-.32.11-.02.64-.01.72,0,.04.02.03.22.03.29,0,.17-.01.34.13.43l.07.03c.5.09.94.28,1.3.54l.08.04c.15.03.26-.09.37-.21.05-.06.18-.2.2-.21.11.05.5.43.55.52.01.05-.06.11-.16.21-.09.08-.19.17-.25.3l-.05.11.07.1c.27.34.45.77.54,1.28l.03.07c.09.14.25.13.42.12.26,0,.3.01.31.06.02.13.01.64-.01.72l-.02.04c-.06.02-.22.02-.28.01-.16,0-.32-.01-.41.11l-.04.09c-.09.51-.28.96-.54,1.28l-.04.09c-.03.15.09.26.21.37Z"/>
  <path class="st0" d="M12.76,12.26c.21-.22.26-.54.1-.81-.15-.28-.46-.42-.76-.35-.16.03-.51.28-.6.35-.7.44-1.39.92-2.06,1.38-.67.46-1.36.93-2.07,1.38-.19.15-.3.36-.29.59,0,.23.12.43.33.57.71.44,1.41.93,2.09,1.4.68.47,1.39.96,2.1,1.41l.09.06c.16.1.35.23.58.23.12,0,.25-.04.38-.13.17-.11.28-.3.3-.51.02-.21-.06-.42-.24-.58l-3.67-2.46.38-.26h-.05c.45-.31.93-.61,1.39-.91.66-.42,1.35-.85,2-1.34Z"/>
  <path class="st0" d="M17.31,17.2c-.18.14-.28.35-.27.58,0,.22.12.42.31.55.13.09.26.12.38.12.22,0,.41-.12.57-.22l.1-.06c.75-.45,1.48-.97,2.19-1.46.66-.46,1.34-.94,2.03-1.37.19-.14.3-.35.29-.58,0-.23-.12-.45-.32-.58-.71-.45-1.41-.93-2.09-1.4-.68-.47-1.39-.96-2.1-1.41l-.1-.06c-.18-.12-.41-.27-.71-.21-.25.05-.44.25-.51.51-.07.26.01.52.22.7l3.67,2.46-3.64,2.42h-.01Z"/>
  <path class="st0" d="M15.84,10.35c-.23.04-.47.28-.53.51l-1.99,7.48c-.07.45.21.74.51.82.06.02.12.03.18.03.28,0,.53-.18.65-.48l2.02-7.56c.04-.23-.04-.45-.2-.61-.17-.16-.4-.23-.59-.19h-.05Z"/>
  <path class="st0" d="M12.73,22.28v.07c-.25.12-.41.35-.41.62,0,.33.22.61.61.7h4.1c.44-.05.64-.37.65-.66.01-.36-.24-.65-.65-.73h-4.31Z"/>
  <path class="st0" d="M3.83,22.21c-.26.06-.44.29-.46.58-.01.28.13.51.38.59.1.03.19.05.27.05.25,0,.39-.14.45-.21.16-.21.18-.53.03-.76-.14-.22-.38-.31-.66-.25Z"/>
  <path class="st0" d="M5.54,22.21h0c-.23.04-.4.18-.47.4-.08.22-.02.47.13.64.11.12.27.19.45.19.07,0,.14,0,.21-.03.29-.08.46-.38.39-.71-.06-.28-.3-.54-.71-.48Z"/>
  <path class="st0" d="M27.94,15.57h0c-1.38.15-2.01,1.3-1.92,2.37.09.99.79,2.01,2.14,2.01.06,0,.13,0,.19,0,.81-.06,1.44-.47,1.77-1.16.35-.75.27-1.7-.2-2.38-.44-.63-1.15-.92-1.98-.84ZM27.4,17.84c-.04-.38.14-.82.66-.88.05,0,.1,0,.14,0,.31,0,.49.15.59.28.18.24.22.6.1.88-.08.17-.24.39-.61.43-.55.06-.83-.31-.88-.7Z"/>
</svg>