<?xml version="1.0" encoding="UTF-8"?>
<svg id="Layer_1" xmlns="http://www.w3.org/2000/svg" version="1.1" viewBox="0 0 182 44">
  <!-- Generator: Adobe Illustrator 29.7.1, SVG Export Plug-In . SVG Version: 2.1.1 Build 8)  -->
  <defs>
    <style>
      .st0 {
        fill: #fff;
      }

      .st1 {
        fill: #dde6ed;
      }

      .st2 {
        fill: #9db2bf;
      }
    </style>
  </defs>
  <g>
    <path class="st0" d="M51.22,12.09v.09c0,4.26-3.47,7.73-7.74,7.73s-7.73-3.47-7.73-7.73c0-3.97,3-7.25,6.85-7.68.29-.03.58-.05.88-.05,4.24,0,7.69,3.42,7.74,7.65h0Z"/>
    <path class="st2" d="M51.22,12.09v.09c0,4.26-3.47,7.73-7.74,7.73s-7.73-3.47-7.73-7.73c0-3.97,3-7.25,6.85-7.68.29-.03.58-.05.88-.05,4.24,0,7.69,3.42,7.74,7.65h0Z"/>
    <g>
      <path class="st1" d="M27.28,31.06c-2.09,0-3.78-1.69-3.78-3.78h-3.9c-.84-2.06-1.3-4.31-1.3-6.67,0-9.81,7.95-17.76,17.75-17.76.79,0,1.56.05,2.32.15-2.96,1.65-5.05,4.7-5.36,8.24h-7.19v4.25h5.23v11.78c0,2.09-1.7,3.78-3.78,3.78h.01Z"/>
      <path class="st1" d="M53.82,20.6c0,9.81-7.95,17.75-17.76,17.75-3.76,0-7.24-1.17-10.11-3.16.43.07.88.11,1.33.11,2.38,0,4.51-1.03,5.98-2.67,1.28-1.42,2.05-3.3,2.05-5.36v-8.5c1.93,2.38,4.87,3.91,8.17,3.91,4.42,0,8.2-2.74,9.75-6.6.38,1.44.58,2.96.58,4.52h.01Z"/>
    </g>
  </g>
  <g>
    <path class="st0" d="M71.95,2.85v4.88h6v13.53c0,2.4-1.95,4.34-4.34,4.34s-4.34-1.94-4.34-4.34h-4.88c0,3.52,1.98,6.59,4.88,8.14,1.29.69,2.77,1.08,4.34,1.08,2.73,0,5.18-1.18,6.87-3.07,1.47-1.63,2.36-3.79,2.36-6.16V2.85h-10.89Z"/>
    <path class="st0" d="M133.87,19.94c0,2.34,1.9,4.24,4.24,4.24s4.24-1.9,4.24-4.24v-.05c-.03-2.32-1.92-4.19-4.24-4.19-.16,0-.32,0-.48.03-2.11.24-3.76,2.04-3.76,4.21h0Z"/>
    <path class="st0" d="M138.11,25.4c-3.01,0-5.46-2.45-5.46-5.46,0-2.05,1.13-3.84,2.81-4.77-.39-.05-.8-.08-1.21-.08-5.09,0-9.22,4.13-9.22,9.22s4.13,9.22,9.22,9.22,9.22-4.13,9.22-9.22c0-.81-.11-1.6-.3-2.35-.81,2.01-2.77,3.43-5.07,3.43h.01Z"/>
    <path class="st0" d="M154.47,12.85c-1.16,0-2.28.22-3.3.61v-.99h-5.92v9.6h0v13.03h5.92v-4.62h0v-8.41c0-1.82,1.48-3.29,3.3-3.29s3.3,1.48,3.3,3.3v8.51h5.92v-8.51c0-5.09-4.13-9.22-9.22-9.22h0Z"/>
    <path class="st0" d="M93.82,12.03c-1.57,0-3.05.39-4.34,1.08v-1.08h-4.88v23.07h4.88v-5.71c1.29.69,2.77,1.08,4.34,1.08,5.1,0,9.22-4.13,9.22-9.22s-4.13-9.22-9.22-9.22ZM93.82,25.6c-2.4,0-4.34-1.94-4.34-4.34s1.95-4.34,4.34-4.34,4.34,1.94,4.34,4.34-1.95,4.34-4.34,4.34Z"/>
    <path class="st0" d="M118.38,13.94c-1.29-.69-2.77-1.09-4.34-1.09-1.16,0-2.26.21-3.28.6h0v-7.54h-5.92v15.62c-.01.18-.02.36-.02.54h.02v8.41h5.92v-8.41h0v-.33c.17-1.66,1.57-2.96,3.28-2.96,1.82,0,3.3,1.48,3.3,3.3v19.08h5.92v-19.08c0-3.52-1.98-6.59-4.88-8.14Z"/>
  </g>
</svg>